<svg id="버튼_통합검색_닫기" xmlns="http://www.w3.org/2000/svg" width="15.172" height="15.171" viewBox="0 0 15.172 15.171">
  <path id="Union_30" data-name="Union 30" d="M-33.161-883.707-39-889.545l-5.838,5.838a1,1,0,0,1-1.415,0l-.041-.04a1,1,0,0,1,0-1.414L-40.455-891l-5.839-5.838a1,1,0,0,1,0-1.414l.041-.041a1,1,0,0,1,1.415,0L-39-892.455l5.839-5.838a1,1,0,0,1,1.414,0l.041.041a1,1,0,0,1,0,1.414L-37.545-891l5.838,5.838a1,1,0,0,1,0,1.414l-.041.04a1,1,0,0,1-.707.293A1,1,0,0,1-33.161-883.707Z" transform="translate(46.586 898.586)" fill="#303030"/>
</svg>
