<svg id="버튼_인풋텍스트_삭제_x" xmlns="http://www.w3.org/2000/svg" width="7.657" height="7.657" viewBox="0 0 7.657 7.657">
  <path id="Union_33" data-name="Union 33" d="M-17.636-924.222l-2.121-2.121-2.122,2.121a1,1,0,0,1-1.414,0,1,1,0,0,1,0-1.414l2.121-2.122-2.121-2.122a1,1,0,0,1,0-1.414,1,1,0,0,1,1.414,0l2.121,2.121,2.121-2.121a1,1,0,0,1,1.415,0,1,1,0,0,1,0,1.415l-2.121,2.121,2.121,2.121a1,1,0,0,1,0,1.414,1,1,0,0,1-.707.293A1,1,0,0,1-17.636-924.222Z" transform="translate(23.586 931.586)" fill="#f7f7f9"/>
</svg>
